<svg width="56" height="60" viewBox="0 0 56 60" fill="none" xmlns="http://www.w3.org/2000/svg">
<path d="M0 3.58038V56.4196C0.000695479 56.5343 0.0678706 56.6462 0.193102 56.7415C0.318334 56.8368 0.496047 56.9112 0.703956 56.9552C0.911866 56.9993 1.14072 57.0112 1.36181 56.9893C1.58291 56.9675 1.78641 56.9129 1.94679 56.8324L56 30.0013L1.94679 3.16761C1.78641 3.08712 1.58291 3.03253 1.36181 3.01068C1.14072 2.98882 0.911866 3.00068 0.703956 3.04476C0.496047 3.08884 0.318334 3.16319 0.193102 3.25847C0.0678706 3.35376 0.000695479 3.46574 0 3.58038V3.58038Z" fill="#3BCCFF"/>
<path d="M39.8835 19.018L5.52054 0.0861125L5.49912 0.074059C4.90716 -0.247365 4.34467 0.553517 4.82948 1.01958L31.7662 26.7764L39.8835 19.018Z" fill="#48FF48"/>
<path d="M4.83203 58.9804C4.34453 59.4465 4.90703 60.2474 5.50166 59.926L5.52309 59.9139L39.8833 40.982L31.766 33.2209L4.83203 58.9804Z" fill="#FF3333"/>
<path d="M53.7555 26.6519L44.1596 21.3672L35.137 30.0001L44.1596 38.629L53.7555 33.3483C56.3657 31.9059 56.3657 28.0943 53.7555 26.6519Z" fill="#FFD400"/>
</svg>
